<?xml version="1.0" standalone="no"?>
<!DOCTYPE svg PUBLIC "-//W3C//DTD SVG 20010904//EN"
 "http://www.w3.org/TR/2001/REC-SVG-20010904/DTD/svg10.dtd">
<svg version="1.0" xmlns="http://www.w3.org/2000/svg"
 width="1254.000000pt" height="1280.000000pt" viewBox="0 0 1254.000000 1280.000000"
 preserveAspectRatio="xMidYMid meet">
<metadata>
Created by potrace 1.16, written by Peter Selinger 2001-2019
</metadata>
<g transform="translate(0.000000,1280.000000) scale(0.100000,-0.100000)"
fill="#000000" stroke="none">
<path d="M0 6400 l0 -6400 6270 0 6270 0 -2 3083 c-1 1695 -3 3062 -4 3037
-25 -376 -34 -461 -79 -760 -35 -234 -128 -635 -200 -870 -15 -47 -34 -109
-42 -139 -16 -59 -27 -91 -124 -336 -280 -713 -696 -1372 -1236 -1958 -171
-186 -517 -508 -676 -630 -30 -23 -99 -77 -154 -119 -384 -295 -953 -618
-1403 -798 -573 -229 -1126 -370 -1710 -436 -239 -27 -731 -23 -679 6 8 5 97
16 197 24 637 56 966 113 1472 258 174 49 455 146 430 148 -3 0 -46 -14 -95
-31 -50 -16 -119 -38 -155 -48 -237 -66 -337 -92 -425 -111 -55 -12 -129 -27
-165 -35 -250 -53 -749 -108 -1085 -120 -258 -9 -727 17 -998 56 -129 19 -78
23 70 5 684 -80 1491 -25 2189 148 1676 415 3092 1500 3937 3016 125 225 306
612 379 810 91 249 237 725 225 736 -2 2 -21 -55 -42 -128 -77 -270 -200 -615
-314 -881 -111 -259 -288 -590 -439 -822 -101 -156 -224 -326 -249 -345 -14
-11 -14 -9 3 10 24 30 25 32 158 230 115 173 194 302 283 465 426 774 695
1684 762 2580 44 585 36 920 -34 1419 -27 191 -121 636 -124 588 -1 -7 10 -61
24 -120 33 -147 95 -509 94 -552 -1 -19 -10 19 -20 85 -19 118 -35 182 -23 95
3 -25 12 -97 20 -160 28 -221 45 -518 49 -830 l3 -315 -8 245 c-12 376 -41
716 -71 830 -10 39 -10 47 17 -220 21 -200 30 -755 15 -950 -27 -362 -86 -804
-102 -763 -7 17 -8 17 -8 -1 -1 -10 -12 -71 -26 -135 -159 -737 -409 -1367
-794 -2004 -13 -20 -20 -37 -17 -37 14 0 227 375 322 565 57 116 104 204 104
197 0 -15 -217 -459 -275 -562 -233 -413 -448 -714 -789 -1102 -499 -569
-1151 -1061 -1856 -1402 -140 -67 -461 -206 -478 -206 -4 0 94 51 218 113 124
62 272 141 330 177 107 64 230 148 230 156 0 2 -44 -18 -97 -45 -108 -54 -173
-82 -173 -76 0 3 19 14 43 26 23 12 121 69 217 127 639 386 1207 879 1563
1356 69 92 177 259 177 273 0 5 -76 -69 -168 -163 -162 -166 -381 -370 -432
-402 -14 -9 -35 -25 -47 -36 -13 -10 -25 -17 -28 -14 -4 3 52 68 123 144 215
231 291 323 533 649 188 253 477 761 626 1098 48 109 183 495 234 667 79 268
173 685 163 725 -3 12 2 63 10 114 9 50 16 103 17 119 l1 27 9 -25 c5 -17 7
-2 4 45 -2 45 -1 57 3 35 8 -35 8 -34 14 18 4 30 5 90 3 135 -3 62 -2 72 5 42
6 -28 7 0 5 90 -1 78 0 104 4 65 l6 -65 7 100 c10 122 8 213 -2 110 -4 -40 -7
50 -8 215 -1 157 -4 323 -7 370 l-5 85 19 -85 c15 -71 19 -78 20 -44 0 22 -6
91 -14 153 -8 62 -22 174 -30 249 -19 164 -59 413 -86 537 -11 50 -25 113 -30
140 -40 216 -277 961 -314 989 -8 6 -29 47 -48 91 -143 336 -404 777 -678
1148 -189 256 -324 431 -372 483 -49 54 -72 68 -60 38 3 -8 -73 62 -168 158
-298 296 -702 605 -1119 855 -157 94 -480 260 -625 321 -279 116 -645 239
-899 301 -155 39 -245 57 -586 121 -206 38 -502 55 -965 55 -349 -1 -364 -2
-490 -27 -71 -15 -179 -34 -240 -43 -389 -58 -858 -186 -1230 -335 -71 -29
-159 -64 -195 -78 -125 -50 -546 -269 -705 -367 -415 -255 -741 -511 -1088
-854 -92 -91 -178 -171 -191 -178 -12 -6 -40 -34 -62 -60 -21 -26 -91 -111
-154 -188 -155 -187 -440 -584 -522 -725 -14 -25 -58 -110 -99 -190 -40 -79
-93 -181 -119 -225 -160 -278 -276 -579 -433 -1130 -75 -262 -140 -594 -177
-895 -23 -192 -35 -362 -51 -730 -6 -146 -13 -266 -14 -268 -9 -10 -17 363
-11 523 23 636 125 1204 331 1830 50 153 129 366 179 485 20 46 36 87 36 89 0
13 -29 -40 -54 -99 -16 -36 -39 -87 -51 -115 -209 -466 -409 -1220 -465 -1755
-21 -197 -40 -411 -54 -592 -8 -104 -18 -193 -22 -200 -27 -43 -41 242 -25
507 41 680 169 1260 432 1959 17 43 28 80 26 82 -9 10 -127 -284 -254 -634
-22 -58 -25 -48 -8 23 8 33 14 65 14 70 1 59 -140 -399 -180 -588 -7 -31 -14
-55 -16 -53 -9 9 70 338 121 506 13 41 33 109 46 150 98 328 325 857 509 1188
91 164 104 187 159 277 467 773 1175 1504 1934 1998 783 509 1687 841 2582
947 148 17 93 18 -2661 19 l-2813 1 0 -6400z m6898 3237 c6 -7 22 -66 36 -132
14 -66 39 -187 56 -270 49 -237 39 -216 127 -271 294 -183 530 -482 647 -823
243 -702 -26 -1479 -651 -1879 -59 -38 -74 -53 -82 -82 -8 -30 -82 -378 -115
-540 l-11 -55 -649 -3 c-432 -1 -653 1 -661 8 -7 6 -18 38 -24 73 -7 34 -34
168 -62 297 -27 130 -49 238 -49 242 0 3 -44 35 -97 71 -362 241 -608 609
-695 1039 -19 95 -23 144 -22 308 0 170 4 210 26 315 89 420 326 770 689 1018
54 37 99 71 99 75 0 4 18 93 41 197 22 105 49 237 61 295 11 58 25 111 31 118
14 18 1290 18 1305 -1z m2472 -6032 c8 -9 26 -22 40 -29 21 -9 4 -11 -99 -14
-68 -1 -125 -1 -126 0 -2 2 1 23 5 48 12 59 12 1021 1 1039 -9 14 -63 12 -106
-5 -11 -4 -17 -3 -12 2 5 5 68 36 140 69 l132 61 5 -576 c4 -486 7 -580 20
-595z m-1997 1080 c73 -15 192 -73 226 -109 l22 -23 -68 -108 -68 -107 -7 59
c-8 77 -27 121 -74 173 -57 63 -123 93 -219 98 -67 4 -88 1 -125 -17 -63 -30
-93 -78 -98 -156 -5 -75 10 -125 50 -171 53 -60 89 -76 313 -139 258 -73 366
-228 294 -421 -85 -226 -472 -297 -739 -136 -35 22 -68 46 -73 53 -6 10 11 46
55 116 l63 101 8 -51 c22 -156 141 -258 317 -274 157 -13 261 70 262 209 1
144 -60 196 -309 263 -193 52 -292 114 -344 220 -29 60 -31 70 -27 144 7 116
55 188 161 242 90 46 254 61 380 34z m-4693 -455 l225 -450 22 47 c11 27 45
104 73 173 65 153 245 579 270 638 l19 42 143 -1 c138 -1 141 -1 98 -15 -85
-26 -80 7 -80 -545 0 -553 -6 -514 82 -541 43 -13 42 -13 -59 -16 -57 -1 -149
-1 -205 0 -99 3 -101 4 -63 15 87 27 80 -20 82 525 l2 483 -29 -60 c-15 -33
-52 -116 -81 -185 -28 -69 -78 -186 -109 -260 -32 -74 -95 -223 -140 -330 -45
-107 -84 -197 -85 -199 -2 -2 -105 199 -229 445 l-226 449 3 -375 2 -375 25
-50 c17 -34 36 -55 60 -67 35 -18 35 -18 -110 -18 -97 0 -140 3 -130 10 8 5
22 10 31 10 21 0 54 38 68 79 7 23 11 167 11 456 l0 422 -40 55 c-22 31 -46
58 -55 62 -8 3 -15 10 -15 16 0 6 40 10 108 10 l107 0 225 -450z m2876 238
l-1 -133 93 -3 c73 -2 92 -6 92 -17 0 -12 -18 -15 -95 -15 l-95 0 2 -352 3
-353 93 4 c50 2 92 1 92 -2 0 -3 -39 -18 -87 -32 -96 -30 -150 -30 -216 -2
l-37 16 0 441 c1 242 -2 445 -5 450 -8 13 -51 13 -94 0 -19 -5 -30 -6 -25 -1
8 9 262 129 275 130 3 1 5 -59 5 -131z m2426 -3 l-4 -135 97 0 c73 0 96 -3 93
-12 -3 -9 -34 -14 -96 -16 l-92 -3 0 -353 0 -353 98 5 c53 2 94 2 91 -2 -12
-12 -173 -56 -208 -56 -20 0 -58 8 -84 18 l-48 18 1 441 c0 499 4 478 -71 462
-23 -6 -46 -12 -51 -15 -4 -3 -8 -1 -8 3 0 8 255 130 275 132 6 1 9 -48 7
-134z m-2937 -137 c28 -6 76 -24 108 -40 54 -27 57 -30 46 -51 -11 -19 -76
-117 -84 -125 -2 -2 -10 21 -19 51 -26 89 -104 146 -211 155 -107 8 -162 -42
-153 -140 9 -84 56 -119 206 -149 203 -41 282 -108 282 -237 -1 -205 -283
-307 -540 -194 -86 38 -86 37 -38 119 l43 73 13 -46 c18 -59 77 -117 148 -144
66 -24 162 -27 205 -4 59 30 78 133 36 195 -29 45 -77 67 -200 94 -109 23
-146 38 -196 81 -98 82 -94 233 6 311 83 66 201 83 348 51z m1458 -4 c32 -8
69 -20 82 -26 l25 -11 0 -327 c0 -327 5 -382 36 -394 8 -3 14 -9 14 -14 0 -5
-53 2 -117 15 -117 25 -118 25 -168 7 -76 -29 -221 -26 -303 5 -81 31 -153 95
-189 169 -26 52 -28 66 -28 172 0 106 2 120 29 177 90 196 355 293 619 227z
m3591 -1 c53 -17 119 -70 142 -114 19 -38 18 -129 -2 -157 -9 -13 -28 -28 -42
-33 -15 -6 -131 -10 -269 -9 l-243 0 0 -37 c0 -60 38 -174 76 -226 39 -53 108
-102 169 -118 79 -22 231 10 298 63 52 41 46 13 -8 -38 -147 -137 -436 -135
-580 4 -113 108 -144 299 -73 450 86 183 327 280 532 215z m-6239 -281 c0
-278 1 -288 23 -332 34 -68 63 -85 147 -84 78 0 149 28 218 85 l37 30 0 256
c0 274 -4 297 -54 322 -16 7 9 10 94 10 l115 1 0 -362 0 -362 45 -11 45 -11
-35 -7 c-19 -3 -74 -9 -122 -13 l-87 -7 -3 71 -3 71 -65 -44 c-104 -71 -181
-98 -277 -99 -75 -1 -85 1 -125 29 -27 19 -52 48 -68 80 -24 49 -25 58 -30
315 -6 286 -12 320 -62 336 l-23 8 23 5 c12 3 64 5 115 3 l92 -3 0 -287z
m4705 288 c12 -8 9 -10 -13 -10 -16 0 -38 -10 -52 -25 -36 -35 -32 -81 16
-189 116 -261 173 -386 178 -386 3 0 48 100 100 222 119 281 127 340 49 372
-17 7 -27 15 -22 17 5 2 61 2 124 -2 63 -3 108 -6 99 -7 -20 -3 -72 -58 -97
-104 -11 -20 -47 -101 -80 -180 -114 -275 -252 -599 -273 -641 -49 -95 -109
-142 -190 -148 -31 -3 -41 2 -64 29 -15 18 -25 32 -23 32 25 0 129 25 150 36
51 27 99 77 129 135 l29 58 -130 288 c-72 158 -154 336 -183 395 l-53 107 141
4 c77 1 142 4 145 5 3 1 12 -3 20 -8z m-7741 -935 c35 -55 100 -158 144 -230
459 -744 1087 -1409 1812 -1915 89 -62 400 -260 408 -260 3 0 34 -17 68 -38
137 -83 429 -227 674 -334 267 -117 632 -236 945 -309 147 -34 91 -33 -71 1
-374 79 -708 205 -1237 467 -308 152 -515 271 -791 455 -253 169 -533 387
-710 552 -502 471 -834 878 -1166 1431 -119 198 -365 686 -365 723 0 4 51 -95
113 -218 62 -124 141 -270 176 -325z m9634 -879 c-8 -13 -133 -150 -313 -341
-47 -50 -139 -132 -206 -182 -122 -94 -194 -145 -194 -139 0 2 55 48 123 103
180 148 518 473 574 553 16 23 28 27 16 6z m-7852 -883 c374 -292 714 -500
1164 -714 398 -188 762 -311 1260 -425 105 -23 182 -43 173 -43 -9 -1 -90 15
-180 35 -494 107 -836 220 -1258 414 -355 163 -789 428 -1090 666 -30 24 -84
66 -119 94 -35 27 -60 50 -57 50 4 0 52 -35 107 -77z m5274 -1144 c-90 -29
-330 -86 -500 -119 -437 -86 -818 -117 -1240 -103 l-240 8 375 6 c485 9 785
38 1170 114 145 29 392 88 431 104 13 5 33 10 44 9 11 0 -7 -8 -40 -19z"/>
<path d="M6145 9063 c-353 -28 -667 -170 -912 -412 -211 -208 -345 -450 -404
-731 -139 -654 175 -1305 773 -1606 141 -71 263 -108 452 -139 306 -50 682 30
954 202 323 205 549 509 642 867 149 569 -56 1169 -523 1525 -276 211 -645
322 -982 294z m321 -38 c296 -44 575 -187 792 -406 272 -274 415 -621 414
-1009 -1 -480 -238 -921 -637 -1185 -245 -162 -488 -234 -791 -235 -390 0
-742 148 -1016 426 -369 376 -501 924 -342 1424 150 472 528 831 1014 961 145
39 396 50 566 24z"/>
<path d="M6021 8974 c-157 -25 -341 -94 -490 -183 -69 -41 -222 -165 -282
-228 -238 -249 -379 -602 -379 -952 0 -121 29 -305 66 -418 40 -124 131 -298
210 -403 334 -444 880 -639 1429 -513 429 99 809 439 966 865 127 345 104 761
-60 1085 -43 85 -140 229 -205 301 -190 213 -465 375 -737 433 -128 28 -387
34 -518 13z m297 -480 l22 -15 0 -469 c0 -454 -1 -470 -19 -480 -13 -6 -157
-10 -400 -10 -438 0 -411 -6 -411 92 0 103 -17 98 336 98 l304 0 2 387 3 387
25 13 c35 18 111 16 138 -3z"/>
<path d="M6200 8055 l0 -395 -320 0 -320 0 0 -45 0 -45 365 0 365 0 0 440 0
440 -45 0 -45 0 0 -395z"/>
<path d="M6208 4310 c-47 -8 -97 -37 -131 -75 -116 -132 -92 -410 46 -549 57
-56 108 -79 190 -84 60 -4 72 -1 107 22 l40 26 0 290 0 289 -32 24 c-73 54
-136 70 -220 57z"/>
<path d="M9845 4309 c-79 -23 -149 -123 -162 -230 l-6 -50 201 3 c231 3 238 6
236 81 -3 134 -140 234 -269 196z"/>
<path d="M6855 12795 c6 -2 70 -11 144 -20 656 -78 1382 -297 1996 -602 853
-425 1581 -1010 2186 -1758 254 -315 497 -686 691 -1055 378 -722 615 -1669
661 -2650 2 -36 4 1320 5 3013 l2 3077 -2847 -1 c-1567 0 -2843 -2 -2838 -4z"/>
<path d="M6995 12695 c6 -2 80 -16 165 -30 591 -98 1142 -278 1690 -551 579
-289 1095 -656 1551 -1101 98 -95 180 -173 184 -173 37 0 -357 377 -579 554
-519 414 -1072 733 -1716 989 -328 130 -555 193 -1039 287 -102 19 -282 38
-256 25z"/>
<path d="M11033 10307 c145 -190 313 -434 304 -443 -3 -3 29 -62 71 -132 415
-696 697 -1487 822 -2306 16 -100 28 -171 29 -158 2 41 -57 413 -89 562 -82
386 -169 676 -313 1050 -118 306 -346 748 -553 1071 -87 136 -383 529 -399
529 -2 0 55 -78 128 -173z"/>
<path d="M12412 5353 c-50 -260 -126 -553 -207 -802 -19 -58 -33 -106 -31
-108 10 -10 117 314 170 512 43 161 108 515 94 515 -2 0 -14 -53 -26 -117z"/>
<path d="M11824 3632 c-101 -202 -257 -467 -387 -662 -419 -626 -950 -1183
-1537 -1616 -382 -281 -431 -315 -615 -418 -87 -49 -135 -79 -135 -82 0 -13
320 170 495 284 354 230 755 558 1030 843 469 486 834 997 1119 1568 43 84 75
155 73 157 -2 2 -21 -31 -43 -74z"/>
</g>
</svg>
