<?xml version="1.0" standalone="no"?>
<!DOCTYPE svg PUBLIC "-//W3C//DTD SVG 20010904//EN"
 "http://www.w3.org/TR/2001/REC-SVG-20010904/DTD/svg10.dtd">
<svg version="1.0" xmlns="http://www.w3.org/2000/svg"
 width="1516.000000pt" height="1536.000000pt" viewBox="0 0 1516.000000 1536.000000"
 preserveAspectRatio="xMidYMid meet">

<g transform="translate(0.000000,1536.000000) scale(0.100000,-0.100000)"
fill="#000000" stroke="none">
<path d="M7040 15250 c-309 -27 -565 -61 -785 -106 -247 -50 -445 -95 -545
-124 -154 -44 -236 -69 -270 -81 -57 -20 -68 -24 -220 -73 -145 -47 -440 -162
-535 -208 -27 -13 -79 -37 -115 -54 -70 -31 -389 -192 -455 -229 -22 -12 -68
-39 -102 -59 -35 -20 -91 -52 -125 -72 -35 -19 -92 -55 -128 -78 -36 -24 -123
-81 -195 -128 -132 -87 -375 -265 -498 -367 -38 -31 -99 -81 -135 -111 -416
-340 -915 -874 -1243 -1332 -132 -183 -194 -270 -199 -282 -3 -6 -30 -49 -61
-96 -70 -105 -139 -218 -139 -227 0 -3 -6 -14 -14 -22 -7 -9 -26 -41 -42 -71
-15 -30 -34 -62 -41 -71 -17 -20 -278 -538 -305 -604 -11 -27 -31 -70 -43 -95
-28 -54 -167 -398 -185 -455 -6 -22 -18 -53 -25 -70 -49 -110 -142 -421 -131
-433 2 -1 18 38 36 88 17 50 34 90 35 88 2 -2 -5 -42 -15 -88 -34 -151 -33
-148 91 185 79 214 229 578 235 572 3 -3 -23 -79 -126 -367 -241 -675 -379
-1314 -430 -2000 -13 -171 -10 -677 4 -699 17 -27 24 12 40 234 52 699 115
1123 241 1630 101 403 204 721 340 1050 70 168 176 397 182 392 2 -2 -22 -63
-52 -136 -315 -749 -521 -1577 -590 -2361 -18 -209 -30 -816 -17 -880 7 -37
10 -14 16 130 10 239 34 644 47 765 60 602 229 1324 449 1920 39 106 108 280
123 311 8 16 34 70 57 119 60 130 56 121 146 280 31 55 97 178 146 274 50 96
115 212 146 259 32 46 74 111 95 145 21 34 57 85 80 114 23 29 83 109 132 179
107 150 158 216 247 321 37 43 105 124 152 181 46 57 102 115 124 130 22 15
60 49 83 76 73 83 459 435 604 551 33 26 74 60 90 75 45 42 345 261 475 348
119 79 162 106 290 183 70 42 98 59 205 119 234 133 672 334 955 438 476 176
1019 313 1490 377 63 9 138 22 165 30 107 30 223 38 545 39 299 0 436 -5 885
-35 140 -9 255 -25 415 -59 25 -5 59 -11 75 -14 87 -14 317 -59 365 -71 30 -8
89 -21 130 -31 41 -9 117 -29 168 -45 51 -16 99 -29 107 -29 14 0 248 -73 305
-95 19 -8 116 -44 215 -80 188 -70 260 -97 310 -120 106 -48 412 -199 445
-220 22 -14 44 -25 48 -25 5 0 47 -22 93 -49 46 -27 125 -73 174 -101 87 -51
383 -244 476 -312 93 -67 296 -223 369 -281 155 -125 176 -143 235 -196 33
-30 108 -101 166 -158 58 -57 109 -100 114 -95 4 4 5 2 2 -4 -3 -6 15 -31 40
-55 25 -24 42 -38 38 -30 -6 10 -4 12 4 7 7 -5 10 -11 7 -14 -7 -7 24 -42 37
-42 5 0 3 8 -4 17 -8 10 14 -6 48 -35 35 -30 96 -97 138 -150 159 -207 232
-304 293 -389 35 -48 116 -161 180 -251 254 -352 547 -864 696 -1216 16 -37
37 -76 48 -85 32 -31 182 -458 258 -736 15 -55 36 -129 47 -165 67 -214 155
-668 204 -1055 53 -422 59 -478 58 -565 l-2 -85 -8 60 c-4 33 -12 78 -18 100
-9 33 -10 22 -6 -60 3 -55 6 -212 7 -350 2 -231 3 -240 9 -110 4 100 5 75 3
-90 -4 -234 -20 -449 -51 -700 -14 -106 -19 -130 -23 -100 -4 33 -7 23 -18
-60 -8 -55 -15 -113 -18 -130 -3 -28 -3 -28 5 -5 21 58 9 -24 -34 -237 -74
-367 -148 -639 -271 -998 -31 -88 -65 -189 -76 -225 -29 -92 -166 -399 -255
-570 -378 -724 -697 -1184 -1201 -1733 -90 -98 -162 -180 -159 -183 5 -5 75
49 187 145 36 30 188 177 338 325 149 148 272 266 272 261 0 -4 -20 -43 -45
-87 -220 -380 -701 -895 -1225 -1309 -254 -201 -581 -427 -845 -583 -248 -147
-254 -153 -62 -62 64 30 117 54 117 52 0 -6 -141 -101 -265 -178 -114 -71
-288 -165 -495 -269 -52 -26 -92 -48 -87 -48 13 -1 240 96 406 174 963 454
1813 1119 2502 1959 171 208 424 563 557 781 11 17 38 64 62 105 24 41 55 95
70 120 54 91 111 203 107 214 -2 6 -12 -5 -22 -24 -55 -108 -357 -590 -369
-590 -3 0 36 64 86 143 314 490 591 1069 777 1626 181 538 296 1058 357 1611
9 85 21 158 26 161 5 3 13 109 18 235 5 126 12 267 15 314 11 159 -21 758 -56
1028 -20 158 -22 188 -15 181 4 -3 63 -386 67 -427 0 -4 4 2 9 14 10 25 -18
309 -55 562 -14 96 -22 183 -19 196 6 26 -40 247 -101 485 -25 96 -44 176 -41
178 2 2 22 -63 44 -144 247 -888 316 -1676 231 -2613 -20 -220 -49 -475 -64
-560 -58 -327 -80 -435 -136 -664 -17 -65 -28 -121 -25 -123 2 -2 14 35 27 83
13 48 24 83 26 77 5 -15 -78 -333 -136 -521 -126 -408 -245 -704 -446 -1107
-165 -333 -282 -537 -469 -820 -400 -605 -814 -1071 -1397 -1571 -243 -208
-581 -455 -869 -634 -366 -228 -879 -481 -1265 -625 -889 -330 -1757 -487
-2694 -487 -178 1 -353 3 -390 6 -53 4 -59 4 -31 -4 107 -30 761 -35 1115 -10
292 21 779 91 1020 146 563 129 859 218 1219 368 61 25 112 44 113 42 12 -11
-423 -182 -677 -266 -253 -84 -583 -178 -705 -200 -22 -4 -85 -17 -140 -29
-219 -47 -487 -88 -833 -126 -125 -14 -244 -31 -265 -39 l-39 -13 78 -6 c116
-10 423 -8 469 3 22 6 78 14 125 20 214 24 270 32 335 47 39 9 75 19 80 23 6
5 28 12 50 16 22 4 49 13 60 19 11 7 46 16 78 19 32 4 71 12 85 20 15 7 65 18
111 25 46 7 105 21 130 31 25 9 80 21 121 25 77 7 156 27 200 50 43 22 268 95
295 95 14 0 33 4 43 10 36 19 90 40 192 74 95 31 140 48 235 91 16 7 53 23 80
35 28 11 73 31 100 43 63 27 414 204 480 242 28 15 86 48 130 73 70 39 111 64
200 119 11 7 34 20 50 29 84 47 390 259 541 376 244 189 327 258 519 432 133
120 384 371 480 481 39 44 95 106 125 140 52 56 123 140 246 290 43 54 199
269 286 398 18 26 43 60 54 75 62 78 259 417 384 657 125 241 132 256 170 360
38 107 48 131 66 167 8 14 14 32 14 40 0 7 18 48 40 91 22 42 40 82 40 88 0
10 33 90 50 121 6 10 10 29 10 43 0 14 4 33 9 43 16 29 71 199 71 219 0 10 16
50 35 87 19 38 35 81 35 96 0 15 3 30 7 34 4 4 15 32 24 63 26 83 8 96 -20 15
-33 -96 -152 -404 -162 -422 -14 -26 -10 -3 10 47 38 98 152 453 195 608 74
269 137 548 178 790 l13 80 5 -65 5 -65 22 120 c37 210 45 275 54 495 5 118
13 242 18 275 12 80 13 425 1 550 -6 55 -14 190 -19 300 -12 256 -30 415 -71
618 -6 27 -10 65 -10 85 0 20 -12 91 -26 157 -14 66 -29 145 -34 175 -13 80
-37 187 -55 250 -34 112 -55 196 -55 216 0 12 -9 50 -21 85 -11 35 -27 91 -34
124 -12 55 -37 131 -115 360 -66 193 -119 337 -130 350 -4 5 -18 39 -30 74
-12 36 -32 85 -46 110 -13 25 -24 51 -24 57 0 11 -144 300 -188 377 -12 21
-22 44 -22 51 0 7 -6 18 -13 25 -8 6 -26 37 -42 68 -16 32 -39 71 -52 86 -13
16 -23 36 -23 44 0 9 -18 40 -40 69 -22 29 -40 58 -40 63 0 6 -14 26 -30 44
-17 19 -30 40 -30 47 0 7 -14 28 -30 47 -16 18 -30 39 -30 45 0 5 -13 26 -30
45 -16 18 -30 40 -30 48 0 8 -6 18 -13 22 -7 4 -30 33 -51 63 -66 98 -112 160
-139 188 -15 16 -27 33 -27 39 0 6 -7 16 -16 23 -8 8 -48 56 -87 107 -119 155
-128 167 -236 295 -135 158 -395 426 -580 597 -420 387 -879 724 -1366 1004
-152 87 -514 274 -610 314 -33 14 -78 33 -100 43 -130 59 -231 102 -263 114
-20 7 -102 37 -182 65 -80 29 -174 63 -210 76 -83 29 -280 90 -345 105 -27 7
-79 23 -115 35 -36 12 -85 26 -110 30 -25 4 -92 20 -150 35 -147 40 -476 101
-735 135 -290 39 -403 46 -845 50 -372 3 -480 1 -660 -15z m1615 -125 c93 -8
525 -95 750 -151 559 -139 1263 -442 1875 -807 459 -273 815 -537 1187 -879
173 -159 380 -378 358 -378 -5 0 -63 55 -129 123 -837 845 -1950 1516 -3071
1850 -284 85 -744 189 -998 225 -70 10 -125 21 -121 25 4 4 23 5 43 2 20 -2
68 -7 106 -10z m4603 -2699 c305 -364 548 -735 788 -1201 465 -903 724 -1818
809 -2855 8 -96 14 -204 13 -240 0 -47 -3 -32 -9 55 -90 1261 -460 2439 -1091
3468 -44 73 -81 139 -81 147 0 36 -286 434 -488 680 -56 69 -94 118 -84 110
10 -8 74 -82 143 -164z m-12107 -1513 c-12 -20 -14 -14 -5 12 4 9 9 14 11 11
3 -2 0 -13 -6 -23z m13527 -983 c0 -8 -6 1 -13 20 -7 19 -13 42 -13 50 0 8 6
-1 13 -20 7 -19 13 -42 13 -50z m139 -1007 c-3 -10 -5 -4 -5 12 0 17 2 24 5
18 2 -7 2 -21 0 -30z m60 -965 c-2 -18 -4 -6 -4 27 0 33 2 48 4 33 2 -15 2
-42 0 -60z m-440 -1290 c-3 -8 -6 -5 -6 6 -1 11 2 17 5 13 3 -3 4 -12 1 -19z
m-10 -70 c-3 -8 -6 -5 -6 6 -1 11 2 17 5 13 3 -3 4 -12 1 -19z m370 -610 c-3
-8 -6 -5 -6 6 -1 11 2 17 5 13 3 -3 4 -12 1 -19z m-166 -965 c-12 -20 -14 -14
-5 12 4 9 9 14 11 11 3 -2 0 -13 -6 -23z m-80 -200 c-12 -20 -14 -14 -5 12 4
9 9 14 11 11 3 -2 0 -13 -6 -23z m-25 -60 c-8 -15 -15 -25 -16 -21 0 12 23 58
27 54 3 -2 -2 -17 -11 -33z m-67 -159 c-76 -181 -275 -578 -391 -779 -114
-199 -303 -498 -348 -552 -6 -7 -25 -33 -43 -58 -82 -115 -110 -152 -224 -296
-247 -313 -532 -616 -824 -878 -240 -215 -291 -257 -544 -447 -212 -160 -481
-337 -706 -465 -140 -79 -359 -192 -359 -185 0 2 35 23 78 47 232 126 474 278
607 379 33 26 125 93 205 150 601 428 1124 933 1617 1563 85 108 312 431 405
574 155 241 357 610 485 885 48 103 88 186 90 185 1 -2 -20 -57 -48 -123z
m-3849 -3839 c-14 -8 -29 -14 -35 -14 -5 0 1 6 15 14 14 8 30 14 35 14 6 0 -1
-6 -15 -14z"/>
<path d="M13707 11769 c10 -17 24 -36 32 -42 8 -7 2 7 -14 31 -32 49 -45 57
-18 11z"/>
<path d="M6871 11466 c-6 -7 -42 -164 -81 -349 -38 -184 -72 -346 -75 -360 -5
-16 -28 -40 -63 -64 -353 -238 -557 -462 -721 -790 -190 -379 -247 -835 -155
-1238 116 -508 401 -922 831 -1208 75 -50 103 -75 108 -95 4 -15 29 -133 55
-262 27 -129 56 -271 65 -315 10 -44 26 -95 37 -112 l20 -33 111 0 c62 0 193
5 292 11 127 8 314 8 634 1 250 -5 461 -8 468 -5 21 8 42 57 53 120 5 32 16
90 23 128 8 39 22 108 32 155 9 47 20 103 25 125 4 22 12 54 18 70 5 17 15 55
21 86 12 57 32 79 112 124 66 37 220 160 304 242 110 108 235 266 298 378 86
150 161 319 192 430 67 242 68 249 69 550 1 307 2 302 -70 565 -35 126 -119
308 -219 471 -47 77 -159 222 -228 296 -77 82 -175 162 -303 248 -133 90 -139
96 -153 163 -7 31 -16 71 -21 87 -23 80 -52 215 -70 334 -6 35 -13 67 -16 72
-3 6 -10 40 -15 77 -5 36 -16 77 -24 89 l-15 23 -764 0 c-633 0 -765 -2 -775
-14z m1044 -692 c385 -64 687 -219 962 -492 326 -325 504 -757 504 -1228 0
-312 -84 -618 -243 -883 -167 -279 -457 -544 -734 -671 -266 -122 -479 -171
-754 -171 -471 0 -901 178 -1227 508 -261 264 -422 574 -490 941 -20 111 -23
414 -4 532 101 646 549 1184 1161 1393 263 90 558 115 825 71z"/>
<path d="M7535 10759 c-626 -46 -1160 -410 -1424 -970 -59 -127 -90 -217 -127
-374 -27 -113 -29 -132 -29 -340 1 -228 7 -282 50 -450 144 -556 557 -996
1105 -1179 206 -68 288 -81 540 -81 197 0 238 3 328 23 273 60 525 177 727
339 345 275 569 666 629 1101 102 729 -271 1428 -941 1766 -157 78 -411 148
-587 161 -148 11 -174 12 -271 4z m385 -73 c305 -51 613 -193 806 -372 17 -16
48 -45 71 -64 148 -130 351 -450 414 -655 61 -197 81 -329 81 -540 1 -218 -29
-383 -107 -588 -137 -365 -446 -705 -797 -879 -239 -118 -463 -169 -738 -170
-285 0 -487 47 -745 173 -151 75 -277 165 -403 288 -120 118 -190 204 -271
340 -54 89 -79 141 -130 266 -5 11 -16 37 -25 58 -9 21 -16 42 -16 48 0 6 -6
25 -14 42 -8 18 -17 52 -20 77 -4 25 -11 74 -16 110 -15 106 -13 487 4 540 8
25 21 68 30 96 9 29 16 58 16 65 0 19 76 201 122 293 182 363 541 675 923 804
155 52 247 74 345 83 127 10 365 3 470 -15z"/>
<path d="M7638 10575 c-8 -8 3 -65 13 -65 5 0 9 16 9 35 0 32 -8 43 -22 30z"/>
<path d="M7556 10104 c-14 -14 -16 -69 -16 -452 0 -240 -3 -447 -6 -459 l-6
-23 -355 0 -354 0 -24 -25 c-20 -19 -25 -34 -25 -77 0 -29 3 -63 6 -75 12 -43
48 -46 507 -41 l430 4 18 23 c18 22 19 53 19 566 0 481 -2 545 -16 559 -11 12
-35 16 -89 16 -54 0 -78 -4 -89 -16z m144 -569 l0 -535 -435 0 -435 0 0 60 0
60 374 0 c332 0 375 2 380 16 3 9 6 219 6 468 0 249 3 456 7 459 3 4 28 7 55
7 l48 0 0 -535z"/>
<path d="M9110 9060 c0 -5 5 -10 11 -10 5 0 7 5 4 10 -3 6 -8 10 -11 10 -2 0
-4 -4 -4 -10z"/>
<path d="M7630 7581 c0 -51 15 -75 31 -50 19 31 7 99 -17 99 -10 0 -14 -14
-14 -49z"/>
<path d="M487 9784 c-4 -4 -7 -19 -6 -33 l0 -26 10 24 c10 26 8 47 -4 35z"/>
<path d="M467 9713 c-3 -4 -8 -26 -11 -48 l-6 -40 15 44 c13 41 14 64 2 44z"/>
<path d="M14832 9225 c-1 -11 5 -49 12 -85 8 -36 14 -56 14 -45 1 11 -5 49
-12 85 -8 36 -14 56 -14 45z"/>
<path d="M14862 9045 c0 -16 2 -22 5 -12 2 9 2 23 0 30 -3 6 -5 -1 -5 -18z"/>
<path d="M14872 8985 c0 -16 2 -22 5 -12 2 9 2 23 0 30 -3 6 -5 -1 -5 -18z"/>
<path d="M14882 8920 c0 -14 2 -19 5 -12 2 6 2 18 0 25 -3 6 -5 1 -5 -13z"/>
<path d="M14891 8854 c0 -11 3 -14 6 -6 3 7 2 16 -1 19 -3 4 -6 -2 -5 -13z"/>
<path d="M14452 8565 c0 -16 2 -22 5 -12 2 9 2 23 0 30 -3 6 -5 -1 -5 -18z"/>
<path d="M14462 8490 c0 -19 2 -27 5 -17 2 9 2 25 0 35 -3 9 -5 1 -5 -18z"/>
<path d="M14491 7394 c0 -11 3 -14 6 -6 3 7 2 16 -1 19 -3 4 -6 -2 -5 -13z"/>
<path d="M14471 7124 c0 -11 3 -14 6 -6 3 7 2 16 -1 19 -3 4 -6 -2 -5 -13z"/>
<path d="M14442 6845 c0 -16 2 -22 5 -12 2 9 2 23 0 30 -3 6 -5 -1 -5 -18z"/>
<path d="M15029 6370 c-6 -45 -4 -58 7 -48 3 3 4 26 2 49 l-3 44 -6 -45z"/>
<path d="M15001 6204 c0 -11 3 -14 6 -6 3 7 2 16 -1 19 -3 4 -6 -2 -5 -13z"/>
<path d="M11183 5595 c-73 -35 -133 -66 -133 -68 0 -3 21 0 46 5 84 18 79 65
80 -660 l1 -637 82 -3 c44 -1 90 2 100 8 20 10 20 11 1 53 -19 40 -20 72 -20
705 0 523 -3 662 -12 661 -7 0 -73 -29 -145 -64z"/>
<path d="M14862 5630 c0 -14 2 -19 5 -12 2 6 2 18 0 25 -3 6 -5 1 -5 -13z"/>
<path d="M8733 5570 c-95 -8 -86 -20 16 -20 80 0 100 -4 156 -29 94 -43 157
-106 194 -196 17 -41 31 -83 31 -94 0 -19 2 -20 20 -9 25 15 120 159 120 181
0 37 -148 125 -250 150 -74 18 -195 25 -287 17z"/>
<path d="M2880 5542 c0 -4 14 -21 31 -38 17 -16 46 -55 65 -86 l35 -57 -3
-483 c-4 -526 -7 -555 -63 -608 -13 -12 -22 -27 -19 -31 6 -11 214 -12 214 -1
0 4 -9 13 -20 20 -29 18 -60 85 -75 167 -15 79 -23 774 -9 828 6 26 7 27 19
10 7 -10 126 -244 264 -520 139 -277 256 -503 261 -503 13 0 36 47 130 270 45
107 127 301 182 430 55 129 125 294 155 365 30 72 59 134 64 139 5 6 9 -224 9
-563 l0 -573 -35 -35 c-19 -19 -35 -37 -35 -39 0 -8 299 -4 304 5 3 5 -2 15
-11 22 -42 35 -43 53 -42 631 1 304 4 564 8 578 4 14 21 34 39 45 17 11 31 23
32 28 0 13 -257 8 -267 -5 -5 -7 -94 -213 -197 -458 -254 -601 -249 -590 -256
-590 -4 0 -126 237 -272 528 l-265 527 -121 3 c-67 1 -122 -1 -122 -6z"/>
<path d="M8542 5519 c-144 -71 -216 -205 -192 -353 18 -109 76 -192 181 -259
59 -37 169 -84 221 -93 117 -21 265 -76 321 -118 61 -45 87 -104 87 -191 0
-38 -5 -87 -11 -108 -12 -46 -69 -111 -118 -137 -35 -18 -35 -19 -10 -20 15 0
32 7 39 15 7 8 20 15 30 15 20 0 92 51 127 89 37 41 69 110 82 177 9 49 9 74
-3 128 -33 158 -153 248 -431 320 -165 43 -227 70 -285 122 -120 108 -116 327
8 410 51 35 21 37 -46 3z"/>
<path d="M6720 5414 c-134 -63 -159 -74 -170 -74 -6 0 -9 -4 -5 -9 3 -5 21 -7
39 -4 29 4 37 1 51 -20 14 -23 16 -76 14 -544 l-2 -518 72 -24 c70 -23 72 -24
134 -7 34 10 77 20 95 23 64 11 42 23 -41 23 l-85 0 -6 53 c-3 28 -4 216 -2
417 2 201 4 379 4 395 0 293 -1 325 -12 325 -6 -1 -45 -17 -86 -36z"/>
<path d="M9607 5411 c-48 -22 -93 -43 -100 -49 -6 -5 -24 -12 -39 -16 -43 -10
-34 -27 10 -20 70 11 67 34 63 -553 l-3 -523 48 -22 c75 -34 166 -27 284 21 8
3 -24 7 -72 9 l-88 3 0 419 c0 321 3 421 12 426 7 5 51 8 97 9 58 0 86 4 88
13 4 9 -20 12 -96 12 l-101 0 0 155 c0 85 -3 155 -7 154 -5 0 -47 -17 -96 -38z"/>
<path d="M7665 5150 c-239 -20 -428 -168 -474 -371 -16 -67 -13 -208 5 -270
56 -193 223 -297 459 -286 58 2 122 12 152 22 51 17 54 17 172 -5 67 -13 124
-21 127 -18 3 4 -3 21 -13 40 -16 30 -18 68 -21 430 l-4 396 -33 16 c-85 41
-224 58 -370 46z m136 -55 c19 -10 49 -28 67 -42 l32 -24 0 -349 0 -349 -36
-29 c-71 -59 -210 -50 -310 19 -207 142 -270 506 -121 701 73 96 252 131 368
73z"/>
<path d="M12020 5150 c-207 -21 -367 -143 -430 -325 -26 -76 -28 -238 -3 -311
61 -185 232 -294 458 -294 104 0 172 16 244 56 49 28 71 61 34 50 -161 -45
-252 -46 -351 -1 -141 63 -232 233 -231 433 1 166 60 291 163 344 58 30 166
31 221 1 117 -62 184 -221 125 -296 -33 -42 -27 -50 40 -45 80 6 118 40 126
113 22 181 -151 301 -396 275z"/>
<path d="M5949 5140 c-64 -8 -157 -56 -190 -98 -77 -99 -61 -258 35 -334 69
-55 106 -68 296 -109 118 -25 184 -74 201 -149 12 -51 3 -104 -23 -147 -24
-39 -12 -42 41 -9 142 90 148 309 10 402 -49 33 -154 69 -234 80 -66 9 -148
38 -187 65 -35 25 -68 90 -68 134 0 47 35 112 72 135 28 18 45 21 108 17 126
-7 229 -70 267 -162 10 -25 23 -45 29 -45 12 0 94 112 94 128 0 15 -111 70
-175 87 -61 16 -178 18 -276 5z"/>
<path d="M4562 5117 c51 -43 52 -51 59 -382 4 -197 10 -324 18 -347 18 -55 70
-118 121 -146 41 -21 54 -23 140 -20 112 5 192 35 314 117 41 28 80 51 85 51
6 0 11 -36 13 -82 l3 -83 60 3 c33 2 77 8 99 13 38 10 38 11 16 26 l-22 15 4
429 3 429 -125 0 -125 0 27 -23 c56 -47 58 -60 58 -381 l0 -295 -47 -36 c-26
-20 -80 -52 -119 -72 -168 -82 -301 -40 -347 111 -8 29 -12 135 -12 369 l0
327 -125 0 -125 0 27 -23z"/>
<path d="M6920 5135 c0 -2 19 -9 41 -15 35 -10 44 -9 58 4 14 15 10 16 -42 16
-31 0 -57 -2 -57 -5z"/>
<path d="M10086 5069 c19 -39 102 -218 184 -397 81 -180 162 -357 179 -394 17
-36 31 -84 31 -105 l1 -38 19 40 c82 176 100 233 72 227 -14 -2 -37 45 -183
374 -69 156 -89 212 -89 247 0 48 26 92 64 107 13 5 -44 9 -147 9 l-167 1 36
-71z"/>
<path d="M10775 5109 c33 -29 35 -35 35 -92 0 -46 -7 -75 -30 -124 -30 -63
-37 -93 -22 -93 8 0 52 92 52 109 0 20 84 159 118 194 l36 37 -112 0 -113 0
36 -31z"/>
<path d="M14386 4805 c-9 -26 -7 -32 5 -12 6 10 9 21 6 23 -2 3 -7 -2 -11 -11z"/>
<path d="M10730 4778 c0 -6 -13 -40 -30 -75 -31 -66 -37 -93 -20 -93 6 0 10 8
10 17 0 9 6 24 13 32 15 17 47 99 47 119 0 7 -4 12 -10 12 -5 0 -10 -5 -10
-12z"/>
<path d="M14332 4675 c-17 -37 -14 -45 4 -12 9 16 14 31 11 33 -2 2 -9 -7 -15
-21z"/>
<path d="M14245 4482 c-123 -258 -370 -696 -512 -906 -29 -43 -52 -81 -49 -83
5 -5 175 251 256 387 132 220 391 732 378 746 -2 2 -35 -63 -73 -144z"/>
<path d="M8397 4523 c-62 -99 -87 -140 -87 -146 0 -11 100 -76 156 -103 109
-50 184 -64 338 -63 181 1 229 14 81 21 -239 12 -388 126 -420 321 -3 20 -10
37 -16 37 -5 0 -28 -30 -52 -67z"/>
<path d="M10647 4576 c-3 -8 -2 -18 3 -21 13 -8 20 9 11 24 -6 10 -10 9 -14
-3z"/>
<path d="M10620 4505 c1 -26 2 -28 11 -12 8 14 8 22 0 30 -8 8 -11 3 -11 -18z"/>
<path d="M5731 4404 c-21 -37 -37 -73 -34 -82 8 -20 118 -69 196 -87 35 -8
103 -14 157 -13 52 1 79 3 60 5 -51 6 -159 43 -201 69 -46 29 -87 78 -110 131
-10 24 -20 43 -23 43 -3 0 -23 -30 -45 -66z"/>
<path d="M14072 4348 c-34 -66 -58 -117 -52 -113 11 7 123 225 118 230 -2 2
-31 -51 -66 -117z"/>
<path d="M13610 4299 c-7 -11 -10 -23 -7 -25 2 -2 9 7 15 21 14 30 7 33 -8 4z"/>
<path d="M6210 4250 c0 -5 7 -7 15 -4 8 4 15 8 15 10 0 2 -7 4 -15 4 -8 0 -15
-4 -15 -10z"/>
<path d="M13550 4194 c-12 -19 -20 -37 -18 -39 2 -3 15 13 27 35 28 50 21 53
-9 4z"/>
<path d="M1040 4211 c0 -5 5 -13 10 -16 6 -3 10 -2 10 4 0 5 -4 13 -10 16 -5
3 -10 2 -10 -4z"/>
<path d="M13515 4129 c-4 -6 -5 -12 -2 -15 2 -3 7 2 10 11 7 17 1 20 -8 4z"/>
<path d="M10420 4073 c-62 -84 -149 -133 -254 -145 -38 -4 -42 -18 -16 -51 25
-32 55 -34 125 -10 62 21 122 81 163 163 50 100 41 122 -18 43z"/>
<path d="M1100 4103 c0 -4 5 -15 10 -23 8 -13 10 -13 10 2 0 9 -4 20 -10 23
-5 3 -10 3 -10 -2z"/>
<path d="M1130 4059 c0 -8 25 -57 55 -108 30 -51 55 -96 55 -99 0 -3 6 -13 14
-21 8 -9 28 -43 46 -76 18 -33 43 -71 56 -86 13 -14 24 -30 24 -36 0 -15 168
-270 221 -336 14 -18 36 -49 48 -69 12 -21 26 -38 30 -38 4 0 17 -17 29 -38
11 -21 31 -47 43 -58 11 -10 29 -35 39 -54 10 -19 41 -60 69 -90 28 -30 62
-70 75 -90 13 -19 48 -60 77 -91 30 -31 74 -81 99 -110 25 -30 76 -88 115
-129 38 -41 90 -97 115 -124 25 -27 117 -117 205 -200 140 -132 218 -200 450
-391 87 -72 213 -165 224 -165 5 0 11 -3 13 -8 5 -13 85 -72 97 -72 6 0 11 -4
11 -9 0 -11 69 -55 75 -49 3 2 -59 51 -137 109 -129 94 -173 130 -348 278
-186 157 -460 416 -602 567 -205 220 -352 384 -410 459 -81 104 -112 141 -128
155 -11 10 -20 22 -20 28 0 6 -13 26 -29 44 -16 18 -49 62 -73 98 -24 36 -87
126 -139 200 -52 74 -105 152 -118 173 -12 20 -27 37 -32 37 -5 0 -9 6 -9 14
0 18 -120 216 -131 216 -5 0 -9 8 -9 17 0 9 -6 24 -14 32 -8 9 -30 43 -50 76
-20 33 -36 53 -36 44z"/>
<path d="M12380 2677 c-152 -146 -257 -244 -280 -260 -33 -23 -17 -34 17 -12
50 33 360 346 342 345 -2 0 -38 -33 -79 -73z"/>
<path d="M12041 2364 c-13 -13 -19 -24 -14 -24 12 0 48 38 42 44 -2 3 -15 -6
-28 -20z"/>
<path d="M3240 1956 c0 -2 8 -10 18 -17 15 -13 16 -12 3 4 -13 16 -21 21 -21
13z"/>
<path d="M3280 1927 c0 -3 18 -20 40 -37 22 -17 40 -29 40 -27 0 3 -18 20 -40
37 -22 17 -40 29 -40 27z"/>
<path d="M3747 1579 c7 -7 15 -10 18 -7 3 3 -2 9 -12 12 -14 6 -15 5 -6 -5z"/>
<path d="M3432 1500 c4 -14 68 -55 68 -43 0 4 -16 18 -36 31 -20 13 -35 19
-32 12z"/>
<path d="M3910 1476 c0 -3 9 -10 20 -16 11 -6 20 -8 20 -6 0 3 -9 10 -20 16
-11 6 -20 8 -20 6z"/>
<path d="M3535 1426 c17 -14 35 -25 40 -25 11 0 -20 25 -50 41 -11 5 -6 -2 10
-16z"/>
<path d="M3975 1435 c32 -26 269 -166 401 -237 142 -77 334 -168 529 -250 227
-97 644 -243 668 -235 5 1 -42 20 -104 40 -247 82 -542 197 -749 295 -58 27
-124 57 -145 68 -74 34 -419 220 -486 261 -36 23 -81 48 -100 57 -30 15 -32
15 -14 1z"/>
<path d="M3600 1380 c0 -5 5 -10 11 -10 5 0 7 5 4 10 -3 6 -8 10 -11 10 -2 0
-4 -4 -4 -10z"/>
<path d="M3640 1356 c0 -2 7 -7 16 -10 8 -3 12 -2 9 4 -6 10 -25 14 -25 6z"/>
<path d="M4080 1306 c0 -3 9 -10 20 -16 11 -6 20 -8 20 -6 0 3 -9 10 -20 16
-11 6 -20 8 -20 6z"/>
<path d="M3777 1269 c7 -7 15 -10 18 -7 3 3 -2 9 -12 12 -14 6 -15 5 -6 -5z"/>
<path d="M4145 1265 c23 -19 341 -191 370 -200 11 -4 -47 30 -130 75 -82 45
-175 95 -205 112 -30 16 -46 22 -35 13z"/>
<path d="M4660 995 c25 -13 50 -24 55 -24 6 0 -10 11 -35 24 -25 13 -49 24
-55 24 -5 0 10 -11 35 -24z"/>
<path d="M4780 941 c19 -10 46 -21 60 -25 14 -3 1 5 -29 19 -62 29 -83 33 -31
6z"/>
<path d="M4881 896 c8 -8 132 -56 136 -53 4 5 -118 57 -131 57 -5 0 -7 -2 -5
-4z"/>
<path d="M5090 812 c21 -14 272 -103 276 -99 3 3 -232 92 -276 104 -13 4 -13
3 0 -5z"/>
<path d="M5605 702 c31 -14 83 -24 65 -13 -8 5 -31 11 -50 15 -24 4 -28 3 -15
-2z"/>
<path d="M9870 650 c-96 -32 -171 -59 -165 -59 14 -1 355 109 355 114 0 8 -5
6 -190 -55z"/>
<path d="M5705 670 c11 -5 27 -9 35 -9 9 0 8 4 -5 9 -11 5 -27 9 -35 9 -9 0
-8 -4 5 -9z"/>
<path d="M9630 575 c-19 -7 -28 -13 -20 -13 8 0 31 6 50 13 19 7 28 13 20 13
-8 0 -31 -6 -50 -13z"/>
<path d="M9568 553 c7 -3 16 -2 19 1 4 3 -2 6 -13 5 -11 0 -14 -3 -6 -6z"/>
<path d="M9458 523 c7 -3 16 -2 19 1 4 3 -2 6 -13 5 -11 0 -14 -3 -6 -6z"/>
<path d="M9338 493 c7 -3 16 -2 19 1 4 3 -2 6 -13 5 -11 0 -14 -3 -6 -6z"/>
<path d="M9298 483 c7 -3 16 -2 19 1 4 3 -2 6 -13 5 -11 0 -14 -3 -6 -6z"/>
<path d="M5470 470 c0 -5 9 -10 21 -10 11 0 17 5 14 10 -3 6 -13 10 -21 10 -8
0 -14 -4 -14 -10z"/>
<path d="M6653 473 c9 -2 23 -2 30 0 6 3 -1 5 -18 5 -16 0 -22 -2 -12 -5z"/>
<path d="M6718 463 c6 -2 18 -2 25 0 6 3 1 5 -13 5 -14 0 -19 -2 -12 -5z"/>
<path d="M9208 463 c7 -3 16 -2 19 1 4 3 -2 6 -13 5 -11 0 -14 -3 -6 -6z"/>
<path d="M9158 453 c7 -3 16 -2 19 1 4 3 -2 6 -13 5 -11 0 -14 -3 -6 -6z"/>
<path d="M8990 425 c-58 -13 -99 -23 -91 -24 17 -1 234 40 240 45 10 9 -50 1
-149 -21z"/>
<path d="M5668 413 c6 -2 18 -2 25 0 6 3 1 5 -13 5 -14 0 -19 -2 -12 -5z"/>
<path d="M8675 374 c-82 -12 -210 -28 -284 -34 -74 -7 -153 -15 -175 -20 l-41
-8 56 -1 c64 -1 495 52 591 73 98 22 20 16 -147 -10z"/>
<path d="M7293 303 c9 -2 25 -2 35 0 9 3 1 5 -18 5 -19 0 -27 -2 -17 -5z"/>
<path d="M7665 300 l-250 -6 280 -1 c154 0 323 3 375 7 l95 7 -125 -1 c-69 0
-237 -3 -375 -6z"/>
<path d="M6851 216 c10 -9 149 -14 149 -5 0 5 -34 9 -77 9 -42 0 -74 -2 -72
-4z"/>
<path d="M7690 70 c0 -5 7 -10 15 -10 8 0 15 5 15 10 0 6 -7 10 -15 10 -8 0
-15 -4 -15 -10z"/>
</g>
</svg>
